<?xml version="1.0" encoding="UTF-8"?>
<svg id="a" xmlns="http://www.w3.org/2000/svg" viewBox="0 0 163 152">
    <defs>
        <style>
            .b{fill:#fff;}.c{fill:#da1a32;}
        </style>
    </defs>
    <path class="b" d="M159.01,151.2c-1.76,0-3.21-1.44-3.21-3.19s1.42-3.21,3.24-3.21,3.16,1.47,3.16,3.2-1.44,3.2-3.19,3.2Z"/>
    <path class="c" d="M159.05,144c-2.26,0-4.05,1.77-4.05,4.01s1.81,3.99,4.01,3.99,3.99-1.79,3.99-3.99-1.78-4.01-3.95-4.01Zm-.05,7.2c-1.76,0-3.21-1.44-3.21-3.19s1.42-3.21,3.24-3.21,3.16,1.47,3.16,3.2-1.44,3.2-3.19,3.2Z"/>
    <path class="c" d="M157.4,145.6h1.41c.58,0,.82,.04,1.06,.15,.4,.19,.63,.62,.63,1.13,0,.36-.12,.7-.35,.95-.14,.16-.27,.24-.55,.38l-.1,.05,1.1,2.14h-.8l-1.05-2.04h-.55v2.04h-.8v-4.8Zm1.23,2.1s.27,0,.37-.02c.37-.08,.59-.35,.59-.76,0-.32-.14-.52-.4-.6-.11-.04-.14-.04-.6-.04h-.39v1.42h.43Z"/>
    <path class="c" d="M147,0h-59V45h10v24.78L55.22,2.32l-1.47-2.32H0V45H10v62H0v45H64v-45h-10v-24.78l42.78,67.45,1.47,2.32h53.75v-45h-10V45h10V0h-5Zm3,5V43h-10V109h10v41h-50.65l-.88-1.39L52,75.34v33.67h10v41H2v-41H12V43H2V2H52.65l.88,1.39,46.47,73.28V43h-10V2h60v3Z"/>
    <path class="b" d="M147,2h-57V43h10v33.67L53.53,3.39l-.88-1.39H2V43H12V109H2v41H62v-41h-10v-33.67l46.47,73.27,.88,1.39h50.65v-41h-10V43h10V2h-3ZM59,112h0v35H5v-35H15V40H5V5H51l52,82.01V40h-10V5h54V40h-10V112h10v35h-46L49,65v47h10Z"/>
    <path class="c" d="M103,87.01h0L51,5H5V40H15V112H5v35H59v-35h-10v-47l52,82h46v-35h-10V40h10V5h-54V40h10v47.01Z"/>
</svg>