<?xml version="1.0" encoding="UTF-8"?><svg xmlns="http://www.w3.org/2000/svg" viewBox="0 0 1559.79 291.08"><defs><style>.d{fill:#daf7f2;}.e{fill:#81c6d1;}</style></defs><g id="a"/><g id="b"><g id="c"><g><path class="d" d="M221.87,60.42h-83.43v226.92h-56.12V60.42H0V14.97H221.87V60.42Z"/><path class="d" d="M202.97,184.26c0-20.08,3.86-37.98,11.6-53.69,7.73-15.71,18.86-27.87,33.39-36.48,14.53-8.6,31.4-12.91,50.6-12.91,27.31,0,49.6,8.36,66.88,25.07,17.27,16.71,26.91,39.41,28.9,68.09l.37,13.84c0,31.05-8.67,55.97-26,74.73-17.34,18.77-40.59,28.15-69.78,28.15s-52.47-9.35-69.87-28.06-26.1-44.15-26.1-76.32v-2.43Zm54.06,3.84c0,19.24,3.62,33.94,10.85,44.12,7.23,10.18,17.58,15.27,31.05,15.27s23.32-5.03,30.68-15.08c7.36-10.05,11.04-26.13,11.04-48.24,0-18.86-3.68-33.47-11.04-43.84-7.36-10.37-17.71-15.55-31.05-15.55s-23.45,5.15-30.68,15.46c-7.23,10.31-10.85,26.26-10.85,47.87Z"/><path class="e" d="M647.08,252.92c-10.1,12.1-24.38,21.48-42.84,28.15-18.46,6.67-38.91,10.01-61.36,10.01-23.57,0-44.24-5.14-62.01-15.43-17.77-10.29-31.49-25.22-41.16-44.8-9.67-19.58-14.62-42.59-14.87-69.03v-18.52c0-27.19,4.58-50.73,13.75-70.62,9.17-19.89,22.38-35.1,39.66-45.65,17.27-10.54,37.51-15.81,60.7-15.81,32.3,0,57.55,7.7,75.76,23.1,18.21,15.4,29,37.82,32.36,67.25h-54.62c-2.5-15.59-8.02-27-16.56-34.23-8.54-7.23-20.3-10.85-35.26-10.85-19.08,0-33.61,7.17-43.59,21.51-9.98,14.34-15.03,35.67-15.15,63.98v17.4c0,28.56,5.42,50.13,16.27,64.73,10.85,14.59,26.75,21.89,47.7,21.89s36.1-4.49,45.08-13.47v-46.95h-51.07v-41.34h107.19v108.69Z"/><path class="e" d="M806.27,287.34c-2.5-4.86-4.3-10.91-5.42-18.15-13.09,14.59-30.12,21.89-51.07,21.89-19.83,0-36.26-5.73-49.29-17.21-13.03-11.47-19.55-25.94-19.55-43.4,0-21.45,7.95-37.91,23.85-49.39,15.9-11.47,38.88-17.27,68.94-17.4h24.88v-11.6c0-9.35-2.4-16.84-7.2-22.45-4.8-5.61-12.38-8.42-22.73-8.42-9.1,0-16.25,2.18-21.42,6.55-5.18,4.37-7.76,10.35-7.76,17.96h-54.06c0-11.72,3.62-22.57,10.85-32.55,7.23-9.98,17.46-17.8,30.68-23.48,13.22-5.67,28.06-8.51,44.52-8.51,24.94,0,44.74,6.27,59.39,18.8,14.65,12.53,21.98,30.15,21.98,52.85v87.74c.12,19.21,2.81,33.74,8.04,43.59v3.18h-54.62Zm-44.71-37.6c7.98,0,15.34-1.78,22.07-5.33s11.72-8.32,14.97-14.31v-34.8h-20.2c-27.06,0-41.47,9.35-43.21,28.06l-.19,3.18c0,6.73,2.37,12.29,7.11,16.65,4.74,4.37,11.22,6.55,19.46,6.55Z"/><path class="e" d="M959.11,35.17v49.76h34.61v39.66h-34.61v101.02c0,7.48,1.43,12.85,4.3,16.09,2.87,3.25,8.35,4.86,16.46,4.86,5.99,0,11.29-.44,15.9-1.31v40.97c-10.6,3.24-21.51,4.86-32.74,4.86-37.91,0-57.24-19.14-57.99-57.43V124.59h-29.56v-39.66h29.56V35.17h54.06Z"/><path class="e" d="M1076.59,107c14.34-17.21,32.36-25.82,54.06-25.82,43.9,0,66.16,25.51,66.78,76.51v129.64h-54.06V159.2c0-11.6-2.5-20.17-7.48-25.72-4.99-5.55-13.28-8.32-24.88-8.32-15.84,0-27.31,6.11-34.42,18.33v143.86h-54.06V0h54.06V107Z"/><path class="e" d="M1331.38,291.08c-29.68,0-53.85-9.1-72.49-27.31-18.65-18.21-27.97-42.46-27.97-72.77v-5.24c0-20.33,3.93-38.5,11.79-54.53,7.86-16.02,18.99-28.37,33.39-37.04,14.4-8.67,30.83-13,49.29-13,27.69,0,49.48,8.73,65.38,26.19,15.9,17.46,23.85,42.22,23.85,74.27v22.07h-128.89c1.75,13.22,7.02,23.82,15.81,31.8,8.79,7.98,19.92,11.97,33.39,11.97,20.83,0,37.1-7.54,48.83-22.64l26.56,29.74c-8.11,11.48-19.08,20.42-32.92,26.84-13.84,6.42-29.18,9.63-46.02,9.63Zm-6.17-166.31c-10.73,0-19.43,3.63-26.1,10.9-6.67,7.27-10.94,17.66-12.81,31.19h75.2v-4.32c-.25-12.02-3.49-21.33-9.73-27.9-6.24-6.58-15.09-9.86-26.56-9.86Z"/><path class="e" d="M1559.04,135.63c-7.36-1-13.84-1.5-19.46-1.5-20.46,0-33.86,6.92-40.22,20.76v132.45h-54.06V84.93h51.07l1.5,24.13c10.85-18.58,25.88-27.87,45.08-27.87,5.99,0,11.6,.81,16.84,2.43l-.75,52.01Z"/></g></g></g></svg>